<svg width="33" height="35" viewBox="0 0 33 35" fill="none" xmlns="http://www.w3.org/2000/svg">
<g clip-path="url(#clip0)">
<path d="M16.4 12.2C14.9 12.2 13.7 13.4 13.7 14.9C13.7 16.4 14.9 17.6 16.4 17.6C17.9 17.6 19.1 16.4 19.1 14.9C19.1 13.4 17.9 12.2 16.4 12.2ZM16.4 16.4C15.6 16.4 14.9 15.7 14.9 14.9C14.9 14.1 15.6 13.4 16.4 13.4C17.2 13.4 17.9 14.1 17.9 14.9C17.9 15.7 17.2 16.4 16.4 16.4Z" fill="white"/>
<path d="M32.2 33.8H30.1V26.4C30.1 26.2 30 25.9 29.7 25.8L25.8 24V21.6C25.8 21.4 25.7 21.2 25.5 21.1L21.7 19.2V13C21.7 12.9 21.7 12.7 21.6 12.6L17 6.9V3.2H18.2C18.5 3.2 18.8 2.9 18.8 2.6C18.8 2.3 18.6 2 18.3 2H17V0.6C17 0.3 16.8 0 16.4 0C16.1 0 15.8 0.3 15.8 0.6V2H14.6C14.2 2 14 2.3 14 2.6C14 2.9 14.3 3.2 14.6 3.2H15.8V6.9L11.3 12.5C11.2 12.6 11.2 12.7 11.2 12.9V19.1L7.4 21C7.2 21.1 7 21.3 7 21.5V24L3.1 25.8C2.9 25.9 2.7 26.1 2.7 26.4V33.8H0.6C0.3 33.8 0 34 0 34.4C0 34.8 0.3 35 0.6 35H32.2C32.5 35 32.8 34.7 32.8 34.4C32.8 34.1 32.6 33.8 32.2 33.8ZM28.9 33.8H25.9V25.4L28.9 26.8V33.8ZM7 33.8H4V26.8L7 25.4V33.8ZM15 33.8V28.2C15 27.8 15.6 27.4 16.5 27.4C17.3 27.4 18 27.8 18 28.2V33.8H15ZM24.6 33.8H19.1V28.2C19.1 27.1 17.9 26.2 16.4 26.2C14.9 26.2 13.7 27.1 13.7 28.2V33.8H8.2V21.9L12 20C12.2 19.9 12.3 19.7 12.3 19.5V13.2L16.3 8.2L20.3 13.2V19.5C20.3 19.7 20.4 19.9 20.6 20L24.4 21.9L24.6 33.8Z" fill="white"/>
</g>
<defs>
<clipPath id="clip0">
<rect width="32.8" height="35" fill="white"/>
</clipPath>
</defs>
</svg>
